<svg width="85" height="85" viewBox="0 0 85 85" fill="none" xmlns="http://www.w3.org/2000/svg">
<g clip-path="url(#clip0_124_173)">
<circle cx="42.5" cy="42.5" r="42.5" fill="#D9D9D9"/>
<g clip-path="url(#clip1_124_173)">
<path d="M61.8846 78.2449C57.6172 82.3816 52.958 81.7285 48.4729 79.769C43.7265 77.7659 39.3721 77.6788 34.3645 79.769C28.094 82.4687 24.7847 81.6849 21.0398 78.2449C-0.209877 56.342 2.92533 22.9869 27.049 21.7677C32.9275 22.0725 37.0207 24.99 40.4607 25.2512C45.5989 24.2062 50.5195 21.2016 56.0061 21.5935C62.5813 22.116 67.5454 24.7287 70.8112 29.4315C57.2253 37.5743 60.4476 55.4711 72.9013 60.4787C70.4193 67.0104 67.197 73.4986 61.841 78.2884L61.8846 78.2449ZM40.0252 21.5064C39.3721 11.796 47.2536 3.7838 56.3109 3C57.5737 14.2345 46.1215 22.595 40.0252 21.5064Z" fill="black"/>
<g clip-path="url(#clip2_124_173)">
<path d="M25.0125 47.5H55.9875C57.0977 47.5 58 46.5977 58 45.4875C58 45.0883 57.8797 44.7 57.6609 44.3719L53.5266 38.1703C53.0398 37.4375 52.225 37 51.3445 37H29.6555C28.7805 37 27.9602 37.4375 27.4734 38.1703L23.3391 44.3664C23.1203 44.7 23 45.0883 23 45.482C23 46.5977 23.9023 47.5 25.0125 47.5ZM26.5 49.25V62.375C26.5 63.8242 27.6758 65 29.125 65H41.375C42.8242 65 44 63.8242 44 62.375V49.25H40.5V58H30V49.25H26.5ZM51 49.25V63.25C51 64.218 51.782 65 52.75 65C53.718 65 54.5 64.218 54.5 63.25V49.25H51Z" fill="#EAEAEA"/>
</g>
</g>
</g>
<defs>
<clipPath id="clip0_124_173">
<rect width="85" height="85" fill="white"/>
</clipPath>
<clipPath id="clip1_124_173">
<rect width="78" height="78" fill="white" transform="translate(3 3)"/>
</clipPath>
<clipPath id="clip2_124_173">
<rect width="35" height="28" fill="white" transform="translate(23 37)"/>
</clipPath>
</defs>
</svg>
